{"title":"L'emploi du temps (Time Out, Laurent Cantet, 2001) DVDRip","uid":8643639,"size":1983904435,"categoryP":"video","categoryS":"movies_dvdr","magnet":"?xt=urn:btih:4e66d7e76038dddcd1dad4efda6baaf610ade28d&amp;dn=L%27emploi+du+temps+%28Time+Out%2C+Laurent+Cantet%2C+2001%29+DVDRip&amp;tr=udp%3A%2F%2Ftracker.openbittorrent.com%3A80&amp;tr=udp%3A%2F%2Fopen.demonii.com%3A1337&amp;tr=udp%3A%2F%2Ftracker.coppersurfer.tk%3A6969&amp;tr=udp%3A%2F%2Fexodus.desync.com%3A6969","seeders":2,"leechers":0,"uploader":"Overthot","files":-1,"time":1372935405,"description":"The film tells the story of Vincent, a middle-aged man who is laid off after having spent more than 11 years working for a prestigious consulting firm. Unable to admit to his family that he has been fired, the unemployed executive continues to pretend he is going to the office every day. In reality, Vincent spends his time aimlessly driving the highways of France and Switzerland, reading papers, or sleeping in his car. - Wikipedia (http://en.wikipedia.org/wiki/Time_Out_%282001_film%29)\n\n***\n\nVideo: H264, 700x548\nFrame rate: 25\nAudio: French (original audio track), Russian (default audio)\nSubtitles: English, Russian\n\n    Format : Matroska\n    Format version : Version 2\n    File size : 1.85 GiB\n    Duration : 2h 8mn\n    Overall bit rate : 2 063 Kbps\n    Encoded date : UTC 2011-02-04 16:02:00\n    Writing application : mkvmerge v3.4.0 ('Rapunzel') built on May 15 2010 09:38:20\n    Writing library : libebml v0.8.0 + libmatroska v0.9.0\n  Video #1\n    ID : 1\n    Format : AVC\n    Format/Info : Advanced Video Codec\n    Format profile : &lt;a class=&quot;__cf_email__&quot; href=&quot;/cdn-cgi/l/email-protection&quot; data-cfemail=&quot;de96b7b9b69e92edf0ef&quot;&gt;[email&amp;#160;protected]&lt;/a&gt;&lt;script cf-hash='f9e31' type=&quot;text/javascript&quot;&gt;\n/* &lt;![CDATA[ */!function(){try{var t=&quot;currentScript&quot;in document?document.currentScript:function(){for(var t=document.getElementsByTagName(&quot;script&quot;),e=t.length;e--;)if(t[e].getAttribute(&quot;cf-hash&quot;))return t[e]}();if(t&amp;&amp;t.previousSibling){var e,r,n,i,c=t.previousSibling,a=c.getAttribute(&quot;data-cfemail&quot;);if(a){for(e=&quot;&quot;,r=parseInt(a.substr(0,2),16),n=2;a.length-n;n+=2)i=parseInt(a.substr(n,2),16)^r,e+=String.fromCharCode(i);e=document.createTextNode(e),c.parentNode.replaceChild(e,c)}}}catch(u){}}();/* ]]&gt; */&lt;/script&gt;\n    Format settings, CABAC : Yes\n    Format settings, ReFrames : 11 frames\n    Codec ID : V_MPEG4/ISO/AVC\n    Duration : 2h 8mn\n    Bit rate : 1 126 Kbps\n    Width : 700 pixels\n    Height : 548 pixels\n    Display aspect ratio : 16:9\n    Original display aspect ratio : 16:9\n    Frame rate mode : Constant\n    Frame rate : 25.000 fps\n    Color space : YUV\n    Chroma subsampling : 4:2:0\n    Bit depth : 8 bits\n    Scan type : Progressive\n    Bits/(Pixel*Frame) : 0.117\n    Stream size : 1.01 GiB (55%)\n    Writing library : x264 core 113 r1884 7313bb5\n    Encoding settings : cabac=1 / ref=11 / deblock=1:-2:-1 / analyse=0x3:0x133 / me=umh / subme=10 / psy=1 / psy_rd=1.10:0.00 / mixed_ref=1 / me_range=32 / chroma_me=1 / trellis=2 / 8x8dct=1 / cqm=0 / deadzone=21,11 / fast_pskip=1 / chroma_qp_offset=-2 / threads=12 / sliced_threads=0 / nr=0 / decimate=1 / interlaced=0 / constrained_intra=0 / bframes=7 / b_pyramid=2 / b_adapt=2 / b_bias=0 / direct=3 / weightb=1 / open_gop=0 / weightp=2 / keyint=250 / keyint_min=25 / scenecut=40 / intra_refresh=0 / rc=crf / mbtree=0 / crf=19.0 / qcomp=0.60 / qpmin=0 / qpmax=69 / qpstep=4 / ip_ratio=1.40 / pb_ratio=1.30 / aq=1:1.10\n    Language : French\n    Default : Yes\n    Forced : No\n    Matrix coefficients : BT.601\n  Audio #2\n    ID : 2\n    Format : AC-3\n    Format/Info : Audio Coding 3\n    Mode extension : CM (complete main)\n    Format settings, Endianness : Big\n    Codec ID : A_AC3\n    Duration : 2h 8mn\n    Bit rate mode : Constant\n    Bit rate : 448 Kbps\n    Channel(s) : 6 channels\n    Channel positions : Front: L C R, Side: L R, LFE\n    Sampling rate : 48.0 KHz\n    Bit depth : 16 bits\n    Compression mode : Lossy\n    Stream size : 411 MiB (22%)\n    Title : Original\n    Language : French\n    Default : No\n    Forced : No\n  Audio #3\n    ID : 3\n    Format : AC-3\n    Format/Info : Audio Coding 3\n    Mode extension : CM (complete main)\n    Format settings, Endianness : Big\n    Codec ID : A_AC3\n    Duration : 2h 8mn\n    Bit rate mode : Constant\n    Bit rate : 448 Kbps\n    Channel(s) : 6 channels\n    Channel positions : Front: L C R, Side: L R, LFE\n    Sampling rate : 48.0 KHz\n    Bit depth : 16 bits\n    Compression mode : Lossy\n    Stream size : 411 MiB (22%)\n    Title : MVO\n    Language : Russian\n    Default : Yes\n    Forced : No\n  Text #4\n    ID : 4\n    Format : UTF-8\n    Codec ID : S_TEXT/UTF8\n    Codec ID/Info : UTF-8 Plain Text\n    Language : Russian\n    Default : No\n    Forced : No\n  Text #5\n    ID : 5\n    Format : UTF-8\n    Codec ID : S_TEXT/UTF8\n    Codec ID/Info : UTF-8 Plain Text\n    Language : English\n    Default : No\n    Forced : No","torrent":{"xt":"urn:btih:4e66d7e76038dddcd1dad4efda6baaf610ade28d","amp;dn":"L%27emploi+du+temps+%28Time+Out%2C+Laurent+Cantet%2C+2001%29+DVDRip","amp;tr":["udp%3A%2F%2Ftracker.openbittorrent.com%3A80","udp%3A%2F%2Fopen.demonii.com%3A1337","udp%3A%2F%2Ftracker.coppersurfer.tk%3A6969","udp%3A%2F%2Fexodus.desync.com%3A6969"],"infoHash":"4e66d7e76038dddcd1dad4efda6baaf610ade28d","infoHashBuffer":{"type":"Buffer","data":[78,102,215,231,96,56,221,220,209,218,212,239,218,107,170,246,16,173,226,141]},"announce":[],"urlList":[]}}